# File created by Blade
# Date/Time:  Fri Jan 16 15:45:56 2015
#---------------------------------------------------------
:version 1.10
:name HOM
:units
  mass 1.0
  length 1.000000
  angle deg
:documentation
     Acclaim Skeleton File
:root
   axis xyz
   order TX TY TZ RX RY RZ
   position 0.000000 0.000000 0.000000
   orientation 0 0 0
:bonedata
   begin
      id 1
      name Spine_dum
      direction 0.000000 1.000000 0.000000
      length 7.170412
      axis 0.0 0.0 0.0 xyz
   end
   begin
      id 2
      name LeftUpLeg_dum
      direction 1.000000 0.000000 0.000000
      length 4.318350
      axis 0.0 0.0 0.0 xyz
   end
   begin
      id 3
      name RightUpLeg_dum
      direction -1.000000 0.000000 0.000000
      length 4.318350
      axis 0.0 0.0 0.0 xyz
   end
   begin
      id 4
      name Spine
      direction 0.000000 1.000000 0.000000
      length 0.000000
      axis 0.0 0.0 0.0 xyz
      dof rx ry rz
   end
   begin
      id 5
      name Spine_dum1
      direction 0.000000 1.000000 0.000000
      length 14.276153
      axis 0.0 0.0 0.0 xyz
   end
   begin
      id 6
      name Spine_dum2
      direction 0.000000 1.000000 0.000000
      length 10.718243
      axis 0.0 0.0 0.0 xyz
   end
   begin
      id 7
      name Spine_dum3
      direction 0.000000 1.000000 0.000000
      length 10.718243
      axis 0.0 0.0 0.0 xyz
   end
   begin
      id 8
      name Head
      direction 0.000000 1.000000 0.000000
      length 4.527550
      axis 0.0 0.0 0.0 xyz
      dof rx ry rz
   end
   begin
      id 9
      name LeftShoulder
      direction 1.000000 0.000000 0.000000
      length 7.058872
      axis 0.0 0.0 -90.0 xyz
      dof rx ry rz
   end
   begin
      id 10
      name LeftArm
      direction 1.000000 0.000000 0.000000
      length 10.955525
      axis 0.0 0.0 -90.0 xyz
      dof rx ry rz
   end
   begin
      id 11
      name LeftForeArm
      direction 1.000000 0.000000 0.000000
      length 8.193716
      axis 0.0 0.0 -90.0 xyz
      dof ry rz rx
   end
   begin
      id 12
      name LeftHand
      direction 0.000000 0.000000 0.000000
      length 0.000000
      axis 0.0 0.0 -90.0 xyz
      dof rx ry rz
   end
   begin
      id 13
      name LeftHand_dum1
      direction 0.000000 0.000000 0.000000
      length 0.000000
      axis 0.0 0.0 -90.0 xyz
   end
   begin
      id 14
      name LeftHand_dum2
      direction 1.000000 0.000000 0.000000
      length 3.937000
      axis 0.0 0.0 -90.0 xyz
   end
   begin
      id 15
      name LeftHandThumb1
      direction 0.000000 0.000000 1.000000
      length 3.937000
      axis 0.0 0.0 -90.0 xyz
      dof rx rz ry
   end
   begin
      id 16
      name RightShoulder
      direction -1.000000 0.000000 0.000000
      length 7.058872
      axis 0.0 0.0 90.0 xyz
      dof rx ry rz
   end
   begin
      id 17
      name RightArm
      direction -1.000000 0.000000 0.000000
      length 10.955525
      axis 0.0 0.0 90.0 xyz
      dof rx ry rz
   end
   begin
      id 18
      name RightForeArm
      direction -1.000000 0.000000 0.000000
      length 8.193716
      axis 0.0 0.0 90.0 xyz
      dof ry rz rx
   end
   begin
      id 19
      name RightHand
      direction 0.000000 0.000000 0.000000
      length 0.000000
      axis 0.0 0.0 90.0 xyz
      dof rx ry rz
   end
   begin
      id 20
      name RightHand_dum1
      direction 0.000000 0.000000 0.000000
      length 0.000000
      axis 0.0 0.0 90.0 xyz
   end
   begin
      id 21
      name RightHand_dum2
      direction -1.000000 0.000000 0.000000
      length 3.937000
      axis 0.0 0.0 90.0 xyz
   end
   begin
      id 22
      name RightHandThumb1
      direction 0.000000 0.000000 1.000000
      length 3.937000
      axis 0.0 0.0 90.0 xyz
      dof rx rz ry
   end
   begin
      id 23
      name LeftUpLeg
      direction 0.000000 -1.000000 0.000000
      length 17.323638
      axis 0.0 0.0 0.0 xyz
      dof rx ry rz
   end
   begin
      id 24
      name LeftLeg
      direction 0.000000 -1.000000 0.000000
      length 16.270368
      axis 0.0 0.0 0.0 xyz
      dof rx ry rz
   end
   begin
      id 25
      name LeftFoot
      direction 0.000000 -0.258819 0.965926
      length 4.922846
      axis 15.0 0.0 0.0 xyz
      dof rx ry rz
   end
   begin
      id 26
      name LeftToeBase
      direction 0.000000 0.000000 1.000000
      length 2.952750
      axis 0.0 0.0 0.0 xyz
      dof rx ry rz
   end
   begin
      id 27
      name RightUpLeg
      direction 0.000000 -1.000000 0.000000
      length 17.323638
      axis 0.0 0.0 0.0 xyz
      dof rx ry rz
   end
   begin
      id 28
      name RightLeg
      direction 0.000000 -1.000000 0.000000
      length 16.270368
      axis 0.0 0.0 0.0 xyz
      dof rx ry rz
   end
   begin
      id 29
      name RightFoot
      direction 0.000000 -0.258819 0.965926
      length 4.922846
      axis 15.0 0.0 0.0 xyz
      dof rx ry rz
   end
   begin
      id 30
      name RightToeBase
      direction 0.000000 0.000000 1.000000
      length 2.952750
      axis 0.0 0.0 0.0 xyz
      dof rx ry rz
   end
:hierarchy
   begin
      root Spine_dum LeftUpLeg_dum RightUpLeg_dum
      Spine_dum Spine
      LeftUpLeg_dum LeftUpLeg
      RightUpLeg_dum RightUpLeg
      Spine Spine_dum1 Spine_dum2 Spine_dum3
      Spine_dum1 Head
      Spine_dum2 LeftShoulder
      Spine_dum3 RightShoulder
      LeftShoulder LeftArm
      LeftArm LeftForeArm
      LeftForeArm LeftHand
      LeftHand LeftHand_dum1 LeftHand_dum2
      LeftHand_dum1 LeftHandThumb1
      RightShoulder RightArm
      RightArm RightForeArm
      RightForeArm RightHand
      RightHand RightHand_dum1 RightHand_dum2
      RightHand_dum1 RightHandThumb1
      LeftUpLeg LeftLeg
      LeftLeg LeftFoot
      LeftFoot LeftToeBase
      RightUpLeg RightLeg
      RightLeg RightFoot
      RightFoot RightToeBase
   end

# File created by Blade
# Date/Time:  Fri Jan 16 15:45:48 2015
# Frame Rate: 120.000 fps
#------------------------------------------------------
:FULLY-SPECIFIED
:DEGREES
1102
root -5.553874 35.361072 -10.635603 -0.409931 -1.158160 -4.388217
Spine -5.683844 2.555556 3.338900
Head 1.290686 -3.704849 -7.787198
LeftShoulder -20.415454 9.447705 -16.696497
LeftArm 20.683266 16.286293 -67.387195
LeftForeArm 15.581650 -0.000000 12.944957
LeftHand 2.201299 -0.000000 -8.577894
LeftHandThumb1 -26.253704 0.000000 33.147579
RightShoulder -7.189654 23.103985 -50.570722
RightArm 32.421686 25.333552 -11.504238
RightForeArm -15.498803 -0.000000 81.233429
RightHand 2.749948 -0.000000 -57.877061
RightHandThumb1 -24.326973 -0.000000 -32.862282
LeftUpLeg 7.969099 12.930218 5.690266
LeftLeg -8.570455 -0.000000 0.000000
LeftFoot -12.982047 23.958475 -10.243320
LeftToeBase 21.721032 -0.000000 -0.000000
RightUpLeg 6.225774 -8.888789 1.109522
RightLeg -3.754545 -0.000000 0.000000
RightFoot -4.893672 -25.310136 6.871934
RightToeBase 12.237263 -0.000000 -0.000000
1103
root -5.552983 35.361383 -10.640429 -0.436124 -1.175393 -4.388091
Spine -5.699892 2.528512 3.328942
Head 1.345988 -3.640179 -7.826396
LeftShoulder -20.395452 9.487275 -16.692206
LeftArm 20.688543 16.241084 -67.412947
LeftForeArm 15.652668 -0.000000 12.923834
LeftHand 2.159784 -0.000000 -8.544874
LeftHandThumb1 -26.253704 0.000000 33.147579
RightShoulder -7.067728 22.887292 -50.507832
RightArm 32.492462 24.463361 -12.034508
RightForeArm -16.725141 -0.000000 80.617639
RightHand 2.771995 0.000000 -57.754078
RightHandThumb1 -24.326973 -0.000000 -32.862282
LeftUpLeg 7.994673 12.961594 5.694095
LeftLeg -8.576486 -0.000000 0.000000
LeftFoot -12.972309 23.958853 -10.226054
LeftToeBase 21.713480 -0.000000 -0.000000
RightUpLeg 6.243936 -8.870605 1.102859
RightLeg -3.756883 -0.000000 0.000000
RightFoot -4.881553 -25.289685 6.931010
RightToeBase 12.175643 -0.000000 -0.000000
1104
root -5.552878 35.361928 -10.644947 -0.454516 -1.183219 -4.389523
Spine -5.709849 2.497200 3.335975
Head 1.368357 -3.587997 -7.919709
LeftShoulder -20.348495 9.496113 -16.702618
LeftArm 20.627865 16.171757 -67.436049
LeftForeArm 15.713795 -0.000000 12.946906
LeftHand 2.123442 -0.000000 -8.543667
LeftHandThumb1 -26.253704 0.000000 33.147579
RightShoulder -7.019348 22.703060 -50.537433
RightArm 32.657482 23.596443 -12.455092
RightForeArm -17.970485 -0.000000 80.103254
RightHand 2.555926 -0.000000 -58.021688
RightHandThumb1 -24.326973 -0.000000 -32.862282
LeftUpLeg 8.011292 12.972190 5.698886
LeftLeg -8.583563 -0.000000 0.000000
LeftFoot -12.951943 23.956024 -10.223298
LeftToeBase 21.695202 -0.000000 -0.000000
RightUpLeg 6.254297 -8.859982 1.102679
RightLeg -3.756766 -0.000000 0.000000
RightFoot -4.875822 -25.286155 6.938986
RightToeBase 12.162936 -0.000000 -0.000000
1105
root -5.553809 35.362259 -10.650013 -0.470483 -1.184333 -4.393396
Spine -5.737113 2.451617 3.328351
Head 1.429055 -3.541445 -7.962382
LeftShoulder -20.323652 9.549245 -16.715485
LeftArm 20.643289 16.131157 -67.421067
LeftForeArm 15.786910 -0.000000 12.908470
LeftHand 2.058758 -0.000000 -8.347522
LeftHandThumb1 -26.253704 0.000000 33.147579
RightShoulder -6.928611 22.522531 -50.513540
RightArm 32.741585 22.645051 -13.034490
RightForeArm -19.331373 -0.000000 79.622237
RightHand 2.742308 -0.000000 -57.944008
RightHandThumb1 -24.326973 -0.000000 -32.862282
LeftUpLeg 8.021818 12.980078 5.706275
LeftLeg -8.588367 -0.000000 0.000000
LeftFoot -12.948140 23.954114 -10.224721
LeftToeBase 21.713422 -0.000000 -0.000000
RightUpLeg 6.264812 -8.830464 1.106632
RightLeg -3.760715 -0.000000 0.000000
RightFoot -4.865484 -25.304142 6.941915
RightToeBase 12.188801 -0.000000 -0.000000
1106
root -5.553013 35.362497 -10.654400 -0.486838 -1.189644 -4.395860
Spine -5.750552 2.390659 3.333476
Head 1.446635 -3.477935 -8.012212
LeftShoulder -20.341332 9.490388 -16.722093
LeftArm 20.575871 16.134994 -67.419065
LeftForeArm 15.765290 -0.000000 12.881754
LeftHand 2.141786 -0.000000 -8.151781
LeftHandThumb1 -26.253704 0.000000 33.147579
RightShoulder -6.892765 22.459667 -50.557589
RightArm 32.937171 21.665418 -13.384030
RightForeArm -20.759081 -0.000000 79.202748
RightHand 3.222714 -0.000000 -57.427923
RightHandThumb1 -24.326973 -0.000000 -32.862282
LeftUpLeg 8.037297 12.999714 5.709535
LeftLeg -8.597409 -0.000000 0.000000
LeftFoot -12.924292 23.941575 -10.193870
LeftToeBase 21.666598 -0.000000 -0.000000
RightUpLeg 6.276559 -8.815913 1.104819
RightLeg -3.764891 -0.000000 0.000000
RightFoot -4.862103 -25.299818 6.913587
RightToeBase 12.257974 -0.000000 -0.000000
